# xmcd
#
# Track frame offsets:
#	150
#	15816
#	34661
#	47119
#	62045
#	76751
#	94780
#	108702
#	121586
#	136079
#	149302
#	167010
#	183377
#	198515
#	211687
#	225964
#	240582
#	258555
#	273625
#	290178
#
# Disc length: 4072 seconds
#
# Revision: 1
# Processed by: cddbd v1.5.1PL2 Copyright (c) Steve Scherf et al.
# Submitted via: audiograbber 1.83.01
#
DISCID=100fe614
DTITLE=Various Artist - ERG NCT 142
DYEAR=2006
DGENRE=Country
TTITLE0=Tim McGraw - When The Stars Go Blue
TTITLE1=George Strait - Seashores of Old Mexico, The
TTITLE2=Billy Currington - Why, Why, Why
TTITLE3=Josh Gracin - Favorite State Of Mind
TTITLE4=Hank Williams Jr. ft. Gretchen Wilson, Big and Rich and Van Zant - That's
TTITLE4=How They Do It In Dixie
TTITLE5=Carrie Underwood - Don't Forget To Remember Me
TTITLE6=Megan Mullins - Ain't What It Used To Be
TTITLE7=Sugarland - Down In Mississippi (Ain't No Good)
TTITLE8=SheDaisy - I'm Taking The Wheel
TTITLE9=Jake Owen - Yee Haw
TTITLE10=Diamond Rio - God Only Cries
TTITLE11=Radney Foster - Prove Me Right
TTITLE12=Bomshel - It Was Absoultely Finger Lickin' Grits And Chicken Country M
TTITLE12=usic Love Song
TTITLE13=Carolina Rain - Get Outta My Way
TTITLE14=Cowboy Crush - Hillbilly Nation
TTITLE15=Cory Morrow - Good Intentions
TTITLE16=Jace Everett - Nowhere In The Neighborhood
TTITLE17=Derek Ruttan - Invisible
TTITLE18=Johnny Reid - Time Flies
TTITLE19=Jason Blaine - While We're Waiting
EXTD=
EXTT0=
EXTT1=
EXTT2=
EXTT3=
EXTT4=
EXTT5=
EXTT6=
EXTT7=
EXTT8=
EXTT9=
EXTT10=
EXTT11=
EXTT12=
EXTT13=
EXTT14=
EXTT15=
EXTT16=
EXTT17=
EXTT18=
EXTT19=
PLAYORDER=
